<svg height="512" viewBox="0 0 512 512" width="512" xmlns="http://www.w3.org/2000/svg"><path d="m62 85.131775c0-23.820374 36.39325-43.131775 81.286819-43.131775 86.263566 0 137.689927 39.813965 212.34108 39.813965 38.337494 0 54.7276-9.953491 69.674439-9.953491 3.08554 0 23.224792 0 23.224792 16.589141v228.930237c0 23.820343-36.396484 43.131775-81.286835 43.131775-86.263549 0-137.68991-39.813934-212.341064-39.813934-30.167366 0-46.743248 6.159546-59.72094 8.792206v123.920959c0 9.161896-7.427246 16.589142-16.589142 16.589142-9.161903 0-16.589149-7.427246-16.589149-16.589142z" style="fill:#e70000;fill-rule:evenodd;stroke:#000;stroke-width:3;stroke-linecap:round;stroke-linejoin:round"/></svg>