
<svg xmlns="http://www.w3.org/2000/svg" width="512" height="512">
  <path fill="#e70000" fill-rule="evenodd" stroke="#000" stroke-linecap="round" stroke-linejoin="round" stroke-width="3" d="M176.884 337.744a401 401 0 0 1-98.954-12.907v12.907H26.302V79.604c0-4.753 11.556-8.604 25.814-8.604s25.814 3.85 25.814 8.605v8.604a516 516 0 0 1 90.35 17.21c30.976 8.686 74.266 26.838 116.162 47.325 49.619 24.265 88.783 46.822 193.605 47.326-75.583 87.513-185.529 137.774-301.163 137.674m-142.502 3.264h34.343l.6 839.562c-5.614.28-11.362.43-17.209.43-64.156 0-116.163-17.334-116.163-38.72 0-19.435 42.963-35.525 98.954-38.292zM168.28 1142.28c0 17.39-34.393 32.104-81.744 37V1105.3c47.325 4.887 81.744 19.588 81.744 36.978"/>
</svg>
